<?xml version="1.0" encoding="UTF-8"?><svg id="b" xmlns="http://www.w3.org/2000/svg" width="185.91" height="242.53" viewBox="0 0 185.91 242.53"><g id="c"><path d="M92.96,5c48.5,0,87.96,39.46,87.96,87.96,0,3.6-.03,58.21-.08,60.31-.93,22.71-10.49,43.91-26.9,59.71-16.46,15.84-38.12,24.56-60.97,24.56s-44.51-8.72-60.97-24.56c-16.4-15.78-25.96-36.96-26.9-59.69-.06-2.14-.08-56.73-.08-60.33C5,44.46,44.46,5,92.96,5M92.96,0C41.62,0,0,41.62,0,92.96c0,1.3.02,59.22.09,60.52,2.03,49.53,42.83,89.06,92.87,89.06s90.84-39.53,92.87-89.06c.06-1.3.09-59.21.09-60.52C185.91,41.62,144.29,0,92.96,0h0Z" fill="#fff" stroke-width="0"/><path d="M100.58,170.98l.03,3c18.52,1.36,28.39,7.09,28.39,10.7,0,4.48-14.04,10.98-36.03,10.98s-36.03-6.5-36.03-10.98c0-3.59,9.8-9.3,28.23-10.69.54,0,1.55.51,2.45.95,1.54.77,3.29,1.64,5.35,1.64s3.77-.88,5.29-1.66c.82-.42,1.84-.94,2.33-.94v-3M100.58,170.98c-2.46,0-5.01,2.61-7.62,2.61s-5.28-2.59-7.8-2.59c-.09,0-.18,0-.27,0-17.68,1.33-30.96,6.95-30.96,13.68,0,7.72,17.48,13.98,39.03,13.98s39.03-6.26,39.03-13.98c0-6.75-13.38-12.39-31.17-13.69-.08,0-.16,0-.25,0h0Z" fill="#fff" stroke-width="0"/><path d="M130.15,184.82h-30.52c-.63,0-1.25.14-1.82.41l-3.02,1.43c-1.16.55-2.52.55-3.67-.02l-2.89-1.4c-.58-.28-1.21-.43-1.85-.43h-30.62" fill="none" stroke="#fff" stroke-miterlimit="10" stroke-width="3"/></g></svg>